  0
SECTION
  2
HEADER
  9
$ACADVER
  1
AC1009
  9
$INSBASE
 10
0.0
 20
0.0
 30
0.0
  9
$EXTMIN
 10
0.0
 20
0.0
 30
0.0
  9
$EXTMAX
 10
0.0
 20
0.0
 30
0.0
  0
ENDSEC
  0
SECTION
  2
TABLES
  0
TABLE
  2
VPORT
 70
0
  0
ENDTAB
  0
TABLE
  2
LTYPE
 70
1
  0
LTYPE
  2
CONTINUOUS
 70
0
  3
Solid line
 72
65
 73
0
 40
0.0
  0
ENDTAB
  0
TABLE
  2
LAYER
 70
1
  0
LAYER
  2
PYDXF
 70
64
 62
7
  6
continuous
  0
ENDTAB
  0
TABLE
  2
STYLE
 70
1
  0
STYLE
  2
STANDARD
 70
0
 40
0
 41
1.0
 50
0.0
 71
0
 42
1
 3
ARIAL.TTF
 4

  0
ENDTAB
  0
TABLE
  2
VIEW
 70
0
  0
ENDTAB
  0
ENDSEC
  0
SECTION
  2
BLOCKS
  0
BLOCK
  8
0
  2
SKETCH
 70
0
 10
0.0
 20
0.0
 30
0.0
  3
SKETCH
  0
POLYLINE
  8
0
 62
7
 70
1
 66
1
 10
0.0
 20
0.0
 30
0.0
  0
VERTEX
  8
0
 10
15.0
 20
150.0
  0
VERTEX
  8
0
 10
105.0
 20
150.0
 42
-0.414213562373
  0
VERTEX
  8
0
 10
110.0
 20
145.0
  0
VERTEX
  8
0
 10
110.0
 20
15.0
 42
-0.414213562373
  0
VERTEX
  8
0
 10
105.0
 20
10.0
  0
VERTEX
  8
0
 10
15.0
 20
10.0
 42
-0.414213562373
  0
VERTEX
  8
0
 10
10.0
 20
15.0
  0
VERTEX
  8
0
 10
10.0
 20
145.0
 42
-0.414213562373
  0
SEQEND
  8
0
  0
CIRCLE
  8
0
 62
7
 10
35.3
 20
143.2
 30
0.0
 40
1.6
  0
CIRCLE
  8
0
 62
7
 10
34.0
 20
95.0
 30
0.0
 40
1.6
  0
CIRCLE
  8
0
 62
7
 10
86.1
 20
100.1
 30
0.0
 40
1.6
  0
CIRCLE
  8
0
 62
7
 10
86.1
 20
128.0
 30
0.0
 40
1.6
  0
POLYLINE
  8
0
 62
7
 70
1
 66
1
 10
0.0
 20
0.0
 30
0.0
  0
VERTEX
  8
0
 10
15.9401506601
 20
72.3476940524
  0
VERTEX
  8
0
 10
100.94015066
 20
72.3476940524
  0
VERTEX
  8
0
 10
100.94015066
 20
17.3476940524
  0
VERTEX
  8
0
 10
15.9401506601
 20
17.3476940524
  0
SEQEND
  8
0
  0
POLYLINE
  8
0
 62
7
 70
1
 66
1
 10
0.0
 20
0.0
 30
0.0
  0
VERTEX
  8
0
 10
21.626508
 20
146.538284
  0
VERTEX
  8
0
 10
89.465152
 20
146.538284
  0
VERTEX
  8
0
 10
89.465152
 20
91.54483
  0
VERTEX
  8
0
 10
21.626508
 20
91.54483
  0
SEQEND
  8
0
  0
POLYLINE
  8
0
 62
7
 70
0
 66
1
 10
0.0
 20
0.0
 30
0.0
  0
VERTEX
  8
0
 10
16.084234
 20
61.694077
  0
VERTEX
  8
0
 10
100.953362
 20
61.694077
  0
SEQEND
  8
0
  0
POLYLINE
  8
0
 62
7
 70
0
 66
1
 10
0.0
 20
0.0
 30
0.0
  0
VERTEX
  8
0
 10
15.860893
 20
26.406387
  0
VERTEX
  8
0
 10
100.953362
 20
26.406387
  0
SEQEND
  8
0
  0
ENDBLK
  0
ENDSEC
  0
SECTION
  2
ENTITIES
  0
INSERT
  2
SKETCH
  8
0
 10
0.0
 20
0.0
 30
0.0
  0
ENDSEC
  0
EOF
